<svg width="237" height="201" viewBox="0 0 237 201" fill="none" xmlns="http://www.w3.org/2000/svg">
<g filter="url(#filter0_d_206_5)">
<mask id="path-1-inside-1_206_5" fill="white">
<path d="M234.315 55.3949C234.315 24.9182 209.615 0.199833 179.139 0.199833C177.398 0.199833 175.658 0.292412 173.954 0.459053C173.417 0.5146 172.88 0.588661 172.343 0.662724C171.177 0.810849 170.01 0.977489 168.862 1.19968C168.27 1.31077 167.677 1.44038 167.085 1.56999C165.974 1.81069 164.9 2.08843 163.826 2.40319C163.289 2.56983 162.734 2.69944 162.178 2.8846C160.901 3.29194 159.66 3.75483 158.42 4.25475C158.123 4.38436 157.809 4.47694 157.531 4.58803C156.05 5.21756 154.605 5.93967 153.18 6.6803C152.698 6.93952 152.235 7.21725 151.754 7.49499C150.246 8.34452 148.787 9.27794 147.384 10.2908C146.57 10.8648 145.792 11.4573 145.014 12.0683C144.496 12.4757 143.977 12.883 143.477 13.3089C142.681 13.994 141.904 14.6976 141.144 15.4197C140.737 15.8085 140.293 16.1973 139.885 16.5862C138.812 17.6786 137.775 18.808 136.793 19.993C136.386 20.4744 136.016 20.9929 135.627 21.4928C135.034 22.2704 134.442 23.0296 133.868 23.8443C133.442 24.4368 133.053 25.0478 132.664 25.6773C132.183 26.4365 131.72 27.1771 131.276 27.9733C130.905 28.6213 130.535 29.2879 130.183 29.9359C129.757 30.7506 129.369 31.6023 128.98 32.4355C128.683 33.065 128.369 33.7131 128.109 34.3611C127.517 35.7868 126.98 37.2125 126.517 38.6938C126.499 38.6382 126.48 38.6012 126.462 38.5642C126.017 37.1385 125.499 35.7498 124.925 34.3797C124.647 33.6946 124.314 33.0465 124.018 32.38C123.345 30.8618 122.585 29.3842 121.74 27.9547C121.296 27.1956 120.851 26.4365 120.37 25.6958C119.963 25.0663 119.574 24.4553 119.148 23.8443C118.592 23.0481 118 22.289 117.407 21.5298C117.019 21.0114 116.63 20.4929 116.222 19.993C115.241 18.8265 114.204 17.6786 113.13 16.5862C112.723 16.1788 112.279 15.79 111.871 15.3826C111.112 14.6605 110.353 13.9569 109.557 13.2904C109.038 12.8645 108.52 12.4572 108.002 12.0313C107.242 11.4203 106.446 10.8463 105.65 10.2723C105.113 9.8835 104.576 9.51319 104.021 9.14287C103.132 8.56889 102.225 8.01342 101.28 7.47647C100.799 7.19874 100.318 6.90248 99.8361 6.64327C98.425 5.87917 96.9793 5.181 95.5034 4.551C95.2072 4.42139 94.8924 4.32881 94.5777 4.19921C93.3556 3.69928 92.0966 3.23639 90.8375 2.82905C90.282 2.66241 89.7451 2.49577 89.1896 2.34764C88.1157 2.05139 87.0418 1.75515 85.9309 1.51444C85.3384 1.38483 84.7459 1.25522 84.1534 1.14413C83.0054 0.940458 81.8389 0.755302 80.6724 0.607177C80.1355 0.533115 79.5985 0.459053 79.0616 0.403506C77.3581 0.236866 75.6362 0.144287 73.8772 0.144287C43.4005 0.144287 18.7006 24.8626 18.7006 55.3393C18.7006 77.3544 31.6245 96.3144 50.2697 105.165C49.0034 106.004 47.9638 107.142 47.2435 108.48C46.5232 109.817 46.1444 111.311 46.1408 112.83V120.848L8.9984 102.573C5.53598 102.573 2.68457 106.146 2.68457 110.534V171.784C2.68457 176.154 5.53598 179.727 8.9984 179.727L46.1778 161.397V183.745C46.1778 188.818 50.3253 192.947 55.3801 192.947H202.82C207.893 192.947 212.022 188.8 212.022 183.745V112.867C212.022 108.627 209.097 105.072 205.19 104.017C222.521 94.7035 234.315 76.4286 234.315 55.3949ZM73.9142 68.7631C66.5265 68.7631 60.5644 62.7826 60.5644 55.3949C60.5644 48.0071 66.545 42.0266 73.9142 42.0266C81.3019 42.0266 87.2825 48.0071 87.2825 55.3949C87.2825 62.7641 81.3019 68.7631 73.9142 68.7631ZM100.632 103.665C100.873 103.535 101.095 103.387 101.317 103.239C102.243 102.702 103.169 102.165 104.058 101.573C104.613 101.221 105.15 100.851 105.687 100.462C106.483 99.8879 107.261 99.3139 108.039 98.7029C108.575 98.2955 109.094 97.8882 109.594 97.4623C110.371 96.7773 111.149 96.0737 111.908 95.3516C112.334 94.9627 112.779 94.5739 113.167 94.1481C114.241 93.0556 115.278 91.9262 116.259 90.7597C116.667 90.2598 117.056 89.7413 117.444 89.2229C118.037 88.4638 118.629 87.7046 119.185 86.9085C119.611 86.2974 120 85.6679 120.407 85.0384C120.87 84.3163 121.333 83.5571 121.777 82.798C122.166 82.1314 122.536 81.4649 122.888 80.7798C123.314 80.0021 123.684 79.1874 124.055 78.3728C124.369 77.7062 124.684 77.0396 124.962 76.3546C125.536 75.0029 126.036 73.5957 126.499 72.1885C126.517 72.1515 126.536 72.096 126.554 72.0589C127.017 73.5217 127.554 74.9844 128.147 76.3916C128.406 77.0396 128.721 77.6692 129.017 78.3172C129.406 79.1504 129.794 79.9836 130.22 80.7983C130.554 81.4649 130.924 82.1129 131.313 82.7795C131.757 83.5571 132.22 84.2977 132.701 85.0569C133.09 85.6679 133.498 86.2974 133.905 86.8899C134.46 87.6861 135.053 88.4638 135.664 89.2414C136.053 89.7413 136.423 90.2598 136.83 90.7227C137.812 91.9077 138.849 93.0371 139.922 94.1295C140.33 94.5369 140.756 94.9072 141.182 95.296C141.941 96.0366 142.718 96.7402 143.514 97.4068C144.014 97.8327 144.533 98.24 145.051 98.6473C145.829 99.2584 146.607 99.8509 147.421 100.425C147.958 100.795 148.477 101.165 149.032 101.536C149.939 102.128 150.847 102.665 151.791 103.202C152.013 103.332 152.235 103.48 152.458 103.61H100.632V103.665ZM179.12 68.7631C171.732 68.7631 165.752 62.7826 165.752 55.3949C165.752 48.0071 171.732 42.0266 179.12 42.0266C186.508 42.0266 192.488 48.0071 192.488 55.3949C192.488 62.7641 186.508 68.7631 179.12 68.7631Z"/>
</mask>
<path d="M234.315 55.3949C234.315 24.9182 209.615 0.199833 179.139 0.199833C177.398 0.199833 175.658 0.292412 173.954 0.459053C173.417 0.5146 172.88 0.588661 172.343 0.662724C171.177 0.810849 170.01 0.977489 168.862 1.19968C168.27 1.31077 167.677 1.44038 167.085 1.56999C165.974 1.81069 164.9 2.08843 163.826 2.40319C163.289 2.56983 162.734 2.69944 162.178 2.8846C160.901 3.29194 159.66 3.75483 158.42 4.25475C158.123 4.38436 157.809 4.47694 157.531 4.58803C156.05 5.21756 154.605 5.93967 153.18 6.6803C152.698 6.93952 152.235 7.21725 151.754 7.49499C150.246 8.34452 148.787 9.27794 147.384 10.2908C146.57 10.8648 145.792 11.4573 145.014 12.0683C144.496 12.4757 143.977 12.883 143.477 13.3089C142.681 13.994 141.904 14.6976 141.144 15.4197C140.737 15.8085 140.293 16.1973 139.885 16.5862C138.812 17.6786 137.775 18.808 136.793 19.993C136.386 20.4744 136.016 20.9929 135.627 21.4928C135.034 22.2704 134.442 23.0296 133.868 23.8443C133.442 24.4368 133.053 25.0478 132.664 25.6773C132.183 26.4365 131.72 27.1771 131.276 27.9733C130.905 28.6213 130.535 29.2879 130.183 29.9359C129.757 30.7506 129.369 31.6023 128.98 32.4355C128.683 33.065 128.369 33.7131 128.109 34.3611C127.517 35.7868 126.98 37.2125 126.517 38.6938C126.499 38.6382 126.48 38.6012 126.462 38.5642C126.017 37.1385 125.499 35.7498 124.925 34.3797C124.647 33.6946 124.314 33.0465 124.018 32.38C123.345 30.8618 122.585 29.3842 121.74 27.9547C121.296 27.1956 120.851 26.4365 120.37 25.6958C119.963 25.0663 119.574 24.4553 119.148 23.8443C118.592 23.0481 118 22.289 117.407 21.5298C117.019 21.0114 116.63 20.4929 116.222 19.993C115.241 18.8265 114.204 17.6786 113.13 16.5862C112.723 16.1788 112.279 15.79 111.871 15.3826C111.112 14.6605 110.353 13.9569 109.557 13.2904C109.038 12.8645 108.52 12.4572 108.002 12.0313C107.242 11.4203 106.446 10.8463 105.65 10.2723C105.113 9.8835 104.576 9.51319 104.021 9.14287C103.132 8.56889 102.225 8.01342 101.28 7.47647C100.799 7.19874 100.318 6.90248 99.8361 6.64327C98.425 5.87917 96.9793 5.181 95.5034 4.551C95.2072 4.42139 94.8924 4.32881 94.5777 4.19921C93.3556 3.69928 92.0966 3.23639 90.8375 2.82905C90.282 2.66241 89.7451 2.49577 89.1896 2.34764C88.1157 2.05139 87.0418 1.75515 85.9309 1.51444C85.3384 1.38483 84.7459 1.25522 84.1534 1.14413C83.0054 0.940458 81.8389 0.755302 80.6724 0.607177C80.1355 0.533115 79.5985 0.459053 79.0616 0.403506C77.3581 0.236866 75.6362 0.144287 73.8772 0.144287C43.4005 0.144287 18.7006 24.8626 18.7006 55.3393C18.7006 77.3544 31.6245 96.3144 50.2697 105.165C49.0034 106.004 47.9638 107.142 47.2435 108.48C46.5232 109.817 46.1444 111.311 46.1408 112.83V120.848L8.9984 102.573C5.53598 102.573 2.68457 106.146 2.68457 110.534V171.784C2.68457 176.154 5.53598 179.727 8.9984 179.727L46.1778 161.397V183.745C46.1778 188.818 50.3253 192.947 55.3801 192.947H202.82C207.893 192.947 212.022 188.8 212.022 183.745V112.867C212.022 108.627 209.097 105.072 205.19 104.017C222.521 94.7035 234.315 76.4286 234.315 55.3949ZM73.9142 68.7631C66.5265 68.7631 60.5644 62.7826 60.5644 55.3949C60.5644 48.0071 66.545 42.0266 73.9142 42.0266C81.3019 42.0266 87.2825 48.0071 87.2825 55.3949C87.2825 62.7641 81.3019 68.7631 73.9142 68.7631ZM100.632 103.665C100.873 103.535 101.095 103.387 101.317 103.239C102.243 102.702 103.169 102.165 104.058 101.573C104.613 101.221 105.15 100.851 105.687 100.462C106.483 99.8879 107.261 99.3139 108.039 98.7029C108.575 98.2955 109.094 97.8882 109.594 97.4623C110.371 96.7773 111.149 96.0737 111.908 95.3516C112.334 94.9627 112.779 94.5739 113.167 94.1481C114.241 93.0556 115.278 91.9262 116.259 90.7597C116.667 90.2598 117.056 89.7413 117.444 89.2229C118.037 88.4638 118.629 87.7046 119.185 86.9085C119.611 86.2974 120 85.6679 120.407 85.0384C120.87 84.3163 121.333 83.5571 121.777 82.798C122.166 82.1314 122.536 81.4649 122.888 80.7798C123.314 80.0021 123.684 79.1874 124.055 78.3728C124.369 77.7062 124.684 77.0396 124.962 76.3546C125.536 75.0029 126.036 73.5957 126.499 72.1885C126.517 72.1515 126.536 72.096 126.554 72.0589C127.017 73.5217 127.554 74.9844 128.147 76.3916C128.406 77.0396 128.721 77.6692 129.017 78.3172C129.406 79.1504 129.794 79.9836 130.22 80.7983C130.554 81.4649 130.924 82.1129 131.313 82.7795C131.757 83.5571 132.22 84.2977 132.701 85.0569C133.09 85.6679 133.498 86.2974 133.905 86.8899C134.46 87.6861 135.053 88.4638 135.664 89.2414C136.053 89.7413 136.423 90.2598 136.83 90.7227C137.812 91.9077 138.849 93.0371 139.922 94.1295C140.33 94.5369 140.756 94.9072 141.182 95.296C141.941 96.0366 142.718 96.7402 143.514 97.4068C144.014 97.8327 144.533 98.24 145.051 98.6473C145.829 99.2584 146.607 99.8509 147.421 100.425C147.958 100.795 148.477 101.165 149.032 101.536C149.939 102.128 150.847 102.665 151.791 103.202C152.013 103.332 152.235 103.48 152.458 103.61H100.632V103.665ZM179.12 68.7631C171.732 68.7631 165.752 62.7826 165.752 55.3949C165.752 48.0071 171.732 42.0266 179.12 42.0266C186.508 42.0266 192.488 48.0071 192.488 55.3949C192.488 62.7641 186.508 68.7631 179.12 68.7631Z" fill="url(#paint0_linear_206_5)"/>
<path d="M234.315 55.3949C234.315 24.9182 209.615 0.199833 179.139 0.199833C177.398 0.199833 175.658 0.292412 173.954 0.459053C173.417 0.5146 172.88 0.588661 172.343 0.662724C171.177 0.810849 170.01 0.977489 168.862 1.19968C168.27 1.31077 167.677 1.44038 167.085 1.56999C165.974 1.81069 164.9 2.08843 163.826 2.40319C163.289 2.56983 162.734 2.69944 162.178 2.8846C160.901 3.29194 159.66 3.75483 158.42 4.25475C158.123 4.38436 157.809 4.47694 157.531 4.58803C156.05 5.21756 154.605 5.93967 153.18 6.6803C152.698 6.93952 152.235 7.21725 151.754 7.49499C150.246 8.34452 148.787 9.27794 147.384 10.2908C146.57 10.8648 145.792 11.4573 145.014 12.0683C144.496 12.4757 143.977 12.883 143.477 13.3089C142.681 13.994 141.904 14.6976 141.144 15.4197C140.737 15.8085 140.293 16.1973 139.885 16.5862C138.812 17.6786 137.775 18.808 136.793 19.993C136.386 20.4744 136.016 20.9929 135.627 21.4928C135.034 22.2704 134.442 23.0296 133.868 23.8443C133.442 24.4368 133.053 25.0478 132.664 25.6773C132.183 26.4365 131.72 27.1771 131.276 27.9733C130.905 28.6213 130.535 29.2879 130.183 29.9359C129.757 30.7506 129.369 31.6023 128.98 32.4355C128.683 33.065 128.369 33.7131 128.109 34.3611C127.517 35.7868 126.98 37.2125 126.517 38.6938C126.499 38.6382 126.48 38.6012 126.462 38.5642C126.017 37.1385 125.499 35.7498 124.925 34.3797C124.647 33.6946 124.314 33.0465 124.018 32.38C123.345 30.8618 122.585 29.3842 121.74 27.9547C121.296 27.1956 120.851 26.4365 120.37 25.6958C119.963 25.0663 119.574 24.4553 119.148 23.8443C118.592 23.0481 118 22.289 117.407 21.5298C117.019 21.0114 116.63 20.4929 116.222 19.993C115.241 18.8265 114.204 17.6786 113.13 16.5862C112.723 16.1788 112.279 15.79 111.871 15.3826C111.112 14.6605 110.353 13.9569 109.557 13.2904C109.038 12.8645 108.52 12.4572 108.002 12.0313C107.242 11.4203 106.446 10.8463 105.65 10.2723C105.113 9.8835 104.576 9.51319 104.021 9.14287C103.132 8.56889 102.225 8.01342 101.28 7.47647C100.799 7.19874 100.318 6.90248 99.8361 6.64327C98.425 5.87917 96.9793 5.181 95.5034 4.551C95.2072 4.42139 94.8924 4.32881 94.5777 4.19921C93.3556 3.69928 92.0966 3.23639 90.8375 2.82905C90.282 2.66241 89.7451 2.49577 89.1896 2.34764C88.1157 2.05139 87.0418 1.75515 85.9309 1.51444C85.3384 1.38483 84.7459 1.25522 84.1534 1.14413C83.0054 0.940458 81.8389 0.755302 80.6724 0.607177C80.1355 0.533115 79.5985 0.459053 79.0616 0.403506C77.3581 0.236866 75.6362 0.144287 73.8772 0.144287C43.4005 0.144287 18.7006 24.8626 18.7006 55.3393C18.7006 77.3544 31.6245 96.3144 50.2697 105.165C49.0034 106.004 47.9638 107.142 47.2435 108.48C46.5232 109.817 46.1444 111.311 46.1408 112.83V120.848L8.9984 102.573C5.53598 102.573 2.68457 106.146 2.68457 110.534V171.784C2.68457 176.154 5.53598 179.727 8.9984 179.727L46.1778 161.397V183.745C46.1778 188.818 50.3253 192.947 55.3801 192.947H202.82C207.893 192.947 212.022 188.8 212.022 183.745V112.867C212.022 108.627 209.097 105.072 205.19 104.017C222.521 94.7035 234.315 76.4286 234.315 55.3949ZM73.9142 68.7631C66.5265 68.7631 60.5644 62.7826 60.5644 55.3949C60.5644 48.0071 66.545 42.0266 73.9142 42.0266C81.3019 42.0266 87.2825 48.0071 87.2825 55.3949C87.2825 62.7641 81.3019 68.7631 73.9142 68.7631ZM100.632 103.665C100.873 103.535 101.095 103.387 101.317 103.239C102.243 102.702 103.169 102.165 104.058 101.573C104.613 101.221 105.15 100.851 105.687 100.462C106.483 99.8879 107.261 99.3139 108.039 98.7029C108.575 98.2955 109.094 97.8882 109.594 97.4623C110.371 96.7773 111.149 96.0737 111.908 95.3516C112.334 94.9627 112.779 94.5739 113.167 94.1481C114.241 93.0556 115.278 91.9262 116.259 90.7597C116.667 90.2598 117.056 89.7413 117.444 89.2229C118.037 88.4638 118.629 87.7046 119.185 86.9085C119.611 86.2974 120 85.6679 120.407 85.0384C120.87 84.3163 121.333 83.5571 121.777 82.798C122.166 82.1314 122.536 81.4649 122.888 80.7798C123.314 80.0021 123.684 79.1874 124.055 78.3728C124.369 77.7062 124.684 77.0396 124.962 76.3546C125.536 75.0029 126.036 73.5957 126.499 72.1885C126.517 72.1515 126.536 72.096 126.554 72.0589C127.017 73.5217 127.554 74.9844 128.147 76.3916C128.406 77.0396 128.721 77.6692 129.017 78.3172C129.406 79.1504 129.794 79.9836 130.22 80.7983C130.554 81.4649 130.924 82.1129 131.313 82.7795C131.757 83.5571 132.22 84.2977 132.701 85.0569C133.09 85.6679 133.498 86.2974 133.905 86.8899C134.46 87.6861 135.053 88.4638 135.664 89.2414C136.053 89.7413 136.423 90.2598 136.83 90.7227C137.812 91.9077 138.849 93.0371 139.922 94.1295C140.33 94.5369 140.756 94.9072 141.182 95.296C141.941 96.0366 142.718 96.7402 143.514 97.4068C144.014 97.8327 144.533 98.24 145.051 98.6473C145.829 99.2584 146.607 99.8509 147.421 100.425C147.958 100.795 148.477 101.165 149.032 101.536C149.939 102.128 150.847 102.665 151.791 103.202C152.013 103.332 152.235 103.48 152.458 103.61H100.632V103.665ZM179.12 68.7631C171.732 68.7631 165.752 62.7826 165.752 55.3949C165.752 48.0071 171.732 42.0266 179.12 42.0266C186.508 42.0266 192.488 48.0071 192.488 55.3949C192.488 62.7641 186.508 68.7631 179.12 68.7631Z" stroke="black" stroke-width="6" mask="url(#path-1-inside-1_206_5)"/>
</g>
<defs>
<filter id="filter0_d_206_5" x="-1.31543" y="0.144287" width="239.631" height="200.803" filterUnits="userSpaceOnUse" color-interpolation-filters="sRGB">
<feFlood flood-opacity="0" result="BackgroundImageFix"/>
<feColorMatrix in="SourceAlpha" type="matrix" values="0 0 0 0 0 0 0 0 0 0 0 0 0 0 0 0 0 0 127 0" result="hardAlpha"/>
<feOffset dy="4"/>
<feGaussianBlur stdDeviation="2"/>
<feComposite in2="hardAlpha" operator="out"/>
<feColorMatrix type="matrix" values="0 0 0 0 0 0 0 0 0 0 0 0 0 0 0 0 0 0 0.25 0"/>
<feBlend mode="normal" in2="BackgroundImageFix" result="effect1_dropShadow_206_5"/>
<feBlend mode="normal" in="SourceGraphic" in2="effect1_dropShadow_206_5" result="shape"/>
</filter>
<linearGradient id="paint0_linear_206_5" x1="118.5" y1="0.144287" x2="118.5" y2="192.947" gradientUnits="userSpaceOnUse">
<stop stop-color="#CBCBCB"/>
<stop offset="1" stop-color="#5D5D5D"/>
</linearGradient>
</defs>
</svg>
